<?xml version="1.0" encoding="utf-8"?>
<!-- Generator: Adobe Illustrator 16.0.4, SVG Export Plug-In . SVG Version: 6.00 Build 0)  -->
<!DOCTYPE svg PUBLIC "-//W3C//DTD SVG 1.1//EN" "http://www.w3.org/Graphics/SVG/1.1/DTD/svg11.dtd">
<svg version="1.1" id="Layer_1" xmlns="http://www.w3.org/2000/svg" xmlns:xlink="http://www.w3.org/1999/xlink" x="0px" y="0px"
	 width="62.17px" height="62.312px" viewBox="0 0 62.17 62.312" enable-background="new 0 0 62.17 62.312" xml:space="preserve">
<path fill="#230B21" d="M62.17,32.223v-2.131l-3.116-1.82l-0.264-1.905l2.513-2.589l-0.575-2.051l-3.493-0.915l-0.767-1.765
	l1.719-3.17l-1.105-1.817l-3.609,0.061l-1.216-1.493l0.8-3.515l-1.557-1.453l-3.456,1.032l-1.575-1.11L46.293,3.98l-1.892-0.977
	l-3.054,1.923l-1.812-0.645l-1.144-3.415l-2.082-0.432l-2.422,2.674L31.97,2.979L29.946,0l-2.12,0.146l-1.611,3.226L24.33,3.763
	l-2.75-2.319l-2.004,0.711l-0.678,3.541L17.186,6.58l-3.27-1.491l-1.742,1.227l0.301,3.591l-1.406,1.313l-3.553-0.553l-1.344,1.652
	l1.258,3.375l-1,1.644l-3.57,0.431l-0.849,1.952l2.122,2.906l-0.52,1.852l-3.324,1.381L0,27.969l2.827,2.225v1.926L0,34.344
	l0.289,2.107l3.324,1.381l0.52,1.854l-2.122,2.908l0.849,1.952l3.57,0.429l1,1.646l-1.258,3.374l1.344,1.651l3.553-0.553
	l1.406,1.313l-0.301,3.592l1.742,1.228l3.27-1.493l1.713,0.885l0.678,3.54l2.004,0.713l2.75-2.32l1.885,0.393l1.611,3.226
	l2.12,0.145l2.023-2.979l1.919-0.131l2.422,2.674l2.082-0.432l1.144-3.415l1.812-0.645l3.054,1.923l1.892-0.979l0.175-3.597
	l1.575-1.112l3.456,1.033l1.557-1.454l-0.8-3.515l1.216-1.493l3.609,0.062l1.105-1.818l-1.719-3.17l0.767-1.765l3.493-0.913
	l0.575-2.051l-2.513-2.59l0.264-1.908L62.17,32.223z M31.008,57.545c-14.551,0-26.389-11.838-26.389-26.389
	S16.457,4.768,31.008,4.768c14.55,0,26.388,11.838,26.388,26.389S45.558,57.545,31.008,57.545z"/>
<path fill="#230B21" d="M31.008,26.334c-2.66,0-4.822,2.164-4.822,4.822c0,2.659,2.162,4.822,4.822,4.822
	c2.658,0,4.82-2.163,4.82-4.822C35.828,28.498,33.666,26.334,31.008,26.334z"/>
<path fill="#230B21" d="M31.008,6.395c-13.676,0-24.762,11.086-24.762,24.762s11.086,24.762,24.762,24.762
	c13.675,0,24.761-11.086,24.761-24.762S44.683,6.395,31.008,6.395z M31.008,39.231c-4.453,0-8.076-3.623-8.076-8.075
	s3.623-8.075,8.076-8.075c4.451,0,8.072,3.623,8.072,8.075S35.459,39.231,31.008,39.231z"/>
</svg>
